<svg xmlns="http://www.w3.org/2000/svg" viewBox="0 0 94.92 87.2"><title>cart</title><g id="Layer_2" data-name="Layer 2"><g id="Layer_1-2" data-name="Layer 1"><path d="M94.2,14.2A3,3,0,0,0,91.7,13H23.5L21.2,2.5A3.11,3.11,0,0,0,18.1,0H3.2A3.16,3.16,0,0,0,0,3.2,3.16,3.16,0,0,0,3.2,6.4H15.6l13,59.4a3.11,3.11,0,0,0,3.1,2.5H82.2a3.2,3.2,0,1,0,0-6.4H34.3l-1.6-7.3H83.8a3.11,3.11,0,0,0,3.1-2.5l8-35.2A3.82,3.82,0,0,0,94.2,14.2Z"/><circle cx="75.6" cy="79.6" r="7.6"/><circle cx="38.5" cy="79.6" r="7.6"/></g></g></svg>