<svg xmlns="http://www.w3.org/2000/svg" viewBox="0 0 47.07 44.83"><defs><style>.cls-1{fill:#231f20}</style></defs><title>star-off</title><g id="Layer_2" data-name="Layer 2"><path class="cls-1" d="M37.44 44.8a1.42 1.42 0 0 1-.6-.2l-13.3-9.7-13.3 9.7a.91.91 0 0 1-1.2 0 1.11 1.11 0 0 1-.4-1.1l5.1-15.7-13.3-9.6A1 1 0 0 1 0 17.1a1 1 0 0 1 1-.7h16.5l5-15.7a1 1 0 0 1 1-.7 1.09 1.09 0 0 1 1 .7l5 15.6H46a1.2 1.2 0 0 1 1 .7 1 1 0 0 1-.4 1.1l-13.3 9.7 5.1 15.7a1 1 0 0 1-.4 1.1 1.42 1.42 0 0 1-.56.2zm-13.9-12.1a1.42 1.42 0 0 1 .6.2l11.4 8.3-4.4-13.4a1 1 0 0 1 .4-1.1l11.4-8.3h-14.1a1.2 1.2 0 0 1-1-.7l-4.3-13.5-4.4 13.4a1 1 0 0 1-1 .7h-14l11.4 8.3a1 1 0 0 1 .4 1.1l-4.4 13.5 11.4-8.3a1.42 1.42 0 0 1 .6-.2z" id="Layer_1-2" data-name="Layer 1"/></g></svg>