<svg xmlns="http://www.w3.org/2000/svg" viewBox="0 0 971.93 961.97"><defs><style>.cls-1{fill:#ff2846;}.cls-2{fill:#162956;}</style></defs><title>wine-merchant-logo</title><g id="Layer_2" data-name="Layer 2"><g id="Layer_1-2" data-name="Layer 1"><path class="cls-1" d="M289.23,61a60.85,60.85,0,0,0,61,61h0A61,61,0,0,0,350.2,0h0A60.85,60.85,0,0,0,289.23,61Z"/><path class="cls-1" d="M444,61a60.85,60.85,0,0,0,61,61h0a61,61,0,1,0-61-61Z"/><path class="cls-1" d="M659.73,121.94A61,61,0,1,0,659.73,0h0a60.85,60.85,0,0,0-61,61c0,33.77,26.26,61,61,61Z"/><path class="cls-1" d="M427.11,272h0a60.86,60.86,0,0,0,61-61,60.85,60.85,0,0,0-61-61A61.85,61.85,0,0,0,384,167.9a60.22,60.22,0,0,0-17.82,43.15A60.85,60.85,0,0,0,427.11,272Z"/><path class="cls-1" d="M582.82,151h0a60.84,60.84,0,0,0-61,61,60.85,60.85,0,0,0,61,61h0a60.84,60.84,0,0,0,61-61A61.82,61.82,0,0,0,626,168.84C613.77,157.58,598.76,151,582.82,151Z"/><path class="cls-1" d="M501.21,423h0a60.84,60.84,0,0,0,61-61,60.85,60.85,0,0,0-61-61h0c-15.95,0-30.95,6.57-43.15,17.82A61,61,0,0,0,501.21,423Z"/><path class="cls-2" d="M0,539H36.87a16.17,16.17,0,0,1,9.54,2.69,12.94,12.94,0,0,1,5.13,7.26L91.67,690q1.47,5.22,2.69,11.34c.82,4.07,1.6,8.4,2.36,13,.87-4.56,1.82-8.89,2.86-13s2.14-7.86,3.34-11.34l46.32-141.08a15.46,15.46,0,0,1,5.14-6.86,14.47,14.47,0,0,1,9.38-3.09h12.88a15.77,15.77,0,0,1,9.46,2.69,13.84,13.84,0,0,1,5.22,7.26l46,141.08a189.34,189.34,0,0,1,6.2,23.16q1.13-6.36,2.36-12.23T248.41,690l40.12-141.08a13.23,13.23,0,0,1,5.06-7,15.29,15.29,0,0,1,9.46-2.93h34.41L264.23,774.82H224.6L173.06,613.67c-.65-2.07-1.34-4.29-2.05-6.69s-1.38-5-2-7.66c-.66,2.71-1.34,5.27-2,7.66s-1.39,4.62-2,6.69l-52,161.15H73.24Z"/><path class="cls-2" d="M451.8,774.82h-44V539h44Z"/><path class="cls-2" d="M571.84,539.21a11.4,11.4,0,0,1,3.51,1,12,12,0,0,1,3,2.12,34.09,34.09,0,0,1,3.26,3.67L705.43,703.7c-.44-3.81-.74-7.52-.9-11.17s-.25-7-.25-10.19V539h38.66V774.82H720.27a20.18,20.18,0,0,1-8.64-1.63,19.19,19.19,0,0,1-6.69-5.88L581.63,610.24c.33,3.48.57,6.93.74,10.36s.24,6.55.24,9.38V774.82H544V539h23A41.2,41.2,0,0,1,571.84,539.21Z"/><path class="cls-2" d="M971.93,539v34.9H867.38v65.41h82.37V673H867.38v66.7H971.93v35.08H823.18V539Z"/><path class="cls-2" d="M235.62,938.51c.34.86.67,1.72,1,2.6.32-.91.66-1.77,1-2.6s.76-1.66,1.21-2.5l23.53-42.75a2.79,2.79,0,0,1,1.31-1.35,6.1,6.1,0,0,1,1.95-.25h6.93V961.2h-8.24V910.1c0-.68,0-1.41,0-2.18s.08-1.57.15-2.38L240.69,949a3.74,3.74,0,0,1-3.39,2.18h-1.36a3.75,3.75,0,0,1-3.4-2.18L208.18,905.4c.1.83.17,1.66.22,2.47s.08,1.55.08,2.23v51.1h-8.25V891.66h6.93a6,6,0,0,1,1.94.25,2.75,2.75,0,0,1,1.31,1.35l24,42.8A17.88,17.88,0,0,1,235.62,938.51Z"/><path class="cls-2" d="M340.12,891.66v7.67H306.73v23.09h27v7.38h-27v23.73h33.39v7.67H297.27V891.66Z"/><path class="cls-2" d="M371.75,932.18v29h-9.36V891.66H382a42.87,42.87,0,0,1,11.4,1.34,21.75,21.75,0,0,1,7.93,3.85,15.61,15.61,0,0,1,4.64,6.09,20.43,20.43,0,0,1,1.5,8,19.94,19.94,0,0,1-1.16,6.89,18.37,18.37,0,0,1-3.37,5.75,20.52,20.52,0,0,1-5.39,4.34,26.72,26.72,0,0,1-7.21,2.72,9.88,9.88,0,0,1,3.11,3l20.28,27.61h-8.35a4.11,4.11,0,0,1-3.78-2l-18.05-24.84a5.29,5.29,0,0,0-1.8-1.67,6.42,6.42,0,0,0-2.91-.51Zm0-6.84h9.85a24.13,24.13,0,0,0,7.26-1,14.7,14.7,0,0,0,5.23-2.81,11.57,11.57,0,0,0,3.18-4.35,14.18,14.18,0,0,0,1.07-5.57c0-4.15-1.37-7.26-4.1-9.37s-6.8-3.15-12.2-3.15H371.75Z"/><path class="cls-2" d="M478.45,946.83a2,2,0,0,1,1.41.63l3.69,4a29.71,29.71,0,0,1-10.36,7.71A35.22,35.22,0,0,1,458.51,962a34.5,34.5,0,0,1-13.63-2.59,29.77,29.77,0,0,1-10.43-7.28,33,33,0,0,1-6.71-11.23,42.15,42.15,0,0,1-2.37-14.42A39.41,39.41,0,0,1,427.92,912a32.94,32.94,0,0,1,7.15-11.26,32.11,32.11,0,0,1,11-7.3,37.61,37.61,0,0,1,14.19-2.59,31.58,31.58,0,0,1,23.1,8.83L480.34,904a3.14,3.14,0,0,1-.77.81,2.21,2.21,0,0,1-1.26.31,2.45,2.45,0,0,1-1.34-.46c-.46-.31-1-.68-1.67-1.14s-1.41-.94-2.28-1.45a19.71,19.71,0,0,0-3.11-1.46,25.4,25.4,0,0,0-4.17-1.14,28.91,28.91,0,0,0-5.48-.46A26.65,26.65,0,0,0,450,901a22.89,22.89,0,0,0-8,5.46,24.74,24.74,0,0,0-5.21,8.64,32.85,32.85,0,0,0-1.87,11.4,33.41,33.41,0,0,0,1.87,11.6,25.43,25.43,0,0,0,5.09,8.61,21.44,21.44,0,0,0,7.64,5.36,24.43,24.43,0,0,0,9.51,1.85,39,39,0,0,0,5.58-.36,23.35,23.35,0,0,0,4.59-1.15,19.49,19.49,0,0,0,3.93-2,31.84,31.84,0,0,0,3.66-2.84A2.51,2.51,0,0,1,478.45,946.83Z"/><path class="cls-2" d="M560.07,961.2h-9.46V929.56H513.15V961.2h-9.46V891.66h9.46v31h37.46v-31h9.46Z"/><path class="cls-2" d="M644,961.2h-7.28a3.15,3.15,0,0,1-2-.63,3.93,3.93,0,0,1-1.16-1.61L627,942.18H595.77L589.28,959a3.83,3.83,0,0,1-1.17,1.55,3.07,3.07,0,0,1-2,.69h-7.28l27.81-69.54h9.56Zm-45.57-25.82h26l-10.92-28.29a53.4,53.4,0,0,1-2.09-6.55c-.35,1.33-.7,2.55-1,3.67s-.67,2.09-1,2.93Z"/><path class="cls-2" d="M669.17,892a5,5,0,0,1,1.38,1.28l40.27,52.41c-.1-.84-.16-1.66-.19-2.45s0-1.56,0-2.31V891.66h8.25V961.2h-4.76a4,4,0,0,1-1.86-.39,4.89,4.89,0,0,1-1.49-1.31L670.5,907.14c.06.81.11,1.6.14,2.38s.06,1.49.06,2.13V961.2h-8.25V891.66h4.85A4.25,4.25,0,0,1,669.17,892Z"/><path class="cls-2" d="M790.93,891.66v7.91H768.47V961.2h-9.42V899.57H736.49v-7.91Z"/></g></g></svg>